<svg width="17" height="17" viewBox="0 0 17 17" fill="none" xmlns="http://www.w3.org/2000/svg">
<path d="M4.04395 11.1399C4.04395 11.1399 4.04395 11.1469 4.04395 11.1757C4.04395 11.1915 4.05046 11.2223 4.05046 11.2223C4.08026 11.3675 4.22132 11.6441 4.88847 11.3875C6.70414 10.6967 10.0054 9.44199 10.0054 9.44199L7.60406 8.16124C7.22696 7.96058 7.22277 7.53134 7.22277 7.25759V3.98705C6.21437 3.44142 5.24276 2.91627 5.12776 2.85714C4.888 2.73843 4.65289 2.63554 4.34609 2.81059C4.05139 2.98098 4.04488 3.45539 4.04488 3.49123V11.1399H4.04395Z" fill="black"/>
<path d="M9.5842 16.6231C9.5842 16.6231 9.67731 16.672 9.70338 16.6818C9.73717 16.6943 9.77349 16.6985 9.80925 16.694C9.84501 16.6894 9.87914 16.6763 9.90873 16.6557C9.93832 16.6352 9.96249 16.6077 9.97918 16.5758C9.99588 16.5438 10.0046 16.5083 10.0046 16.4723V9.44238L4.89045 11.3861C4.01427 11.7241 4.04407 11.1398 4.04407 11.1398V11.3009C4.04407 11.5718 4.08364 11.7306 4.23867 11.8684L9.5842 16.6231Z" fill="#19867F"/>
<path d="M10.0041 9.44195V5.95633C10.0041 5.81739 9.96661 5.68103 9.89546 5.5617C9.82432 5.44236 9.72222 5.3445 9.59997 5.27847C9.59997 5.27847 5.37551 2.98747 5.13063 2.86084C4.8904 2.74165 4.65529 2.63923 4.34895 2.81428C4.04262 2.98933 4.04541 3.49632 4.04541 3.49632V2.75609C4.04541 2.42228 4.28564 2.23652 4.57754 2.12525C4.86945 2.01399 7.9668 0.837989 8.2345 0.733704C8.50219 0.629419 8.72519 0.763034 8.91002 0.861267L14.0111 3.57547C14.1345 3.64118 14.2377 3.73916 14.3097 3.85897C14.3817 3.97877 14.4198 4.11588 14.4199 4.25564V7.23987C14.4199 7.59602 14.1406 7.87442 13.8296 7.98895L10.0041 9.44195Z" fill="#FE6E00"/>
</svg>
